<svg width="555" height="451" viewBox="0 0 555 451" fill="none" xmlns="http://www.w3.org/2000/svg">
<g filter="url(#filter0_b_755_346)">
<rect width="555" height="451" rx="16" fill="white" fill-opacity="0.3"/>
</g>
<rect x="183" y="54" width="331" height="71" rx="22" fill="#1078FD"/>
<path d="M506.362 120.048C505.889 119.747 505.756 119.117 506.067 118.65L511.91 109.886C512.435 109.098 513.659 109.414 513.738 110.357L514 113.5L514.477 116.839C514.492 116.946 514.525 117.049 514.573 117.145L515.953 119.905C515.984 119.968 516.022 120.028 516.066 120.083L518 122.5L518.793 123.293C519.423 123.923 518.977 125 518.086 125H515.236C515.081 125 514.928 124.964 514.789 124.894L511 123L506.362 120.048Z" fill="#1078FD"/>
<rect x="183" y="254" width="331" height="71" rx="22" fill="#1078FD"/>
<path d="M506.362 320.048C505.889 319.747 505.756 319.117 506.067 318.65L511.91 309.886C512.435 309.098 513.659 309.414 513.738 310.357L514 313.5L514.477 316.839C514.492 316.946 514.525 317.049 514.573 317.145L515.953 319.905C515.984 319.968 516.022 320.028 516.066 320.083L518 322.5L518.793 323.293C519.423 323.923 518.977 325 518.086 325H515.236C515.081 325 514.928 324.964 514.789 324.894L511 323L506.362 320.048Z" fill="#1078FD"/>
<rect width="331" height="71" rx="22" transform="matrix(-1 0 0 1 370.5 154)" fill="#E4E4E6"/>
<path d="M47.1382 220.048C47.6112 219.747 47.7443 219.117 47.4334 218.65L41.5905 209.886C41.0651 209.098 39.8405 209.414 39.7619 210.357L39.5 213.5L39.0229 216.839C39.0077 216.946 38.9755 217.049 38.9274 217.145L37.5474 219.905C37.5159 219.968 37.4778 220.028 37.4338 220.083L35.5 222.5L34.7071 223.293C34.0771 223.923 34.5233 225 35.4142 225H38.2639C38.4192 225 38.5723 224.964 38.7111 224.894L42.5 223L47.1382 220.048Z" fill="#E4E4E6"/>
<rect width="195.316" height="39.8885" rx="19.9442" transform="matrix(-1 0 0 1 233.817 354)" fill="#E4E4E6"/>
<path d="M52.77 390.998C53.243 390.697 53.3762 390.066 53.0652 389.6L44.2186 376.33C43.6933 375.542 42.4687 375.858 42.39 376.802L41.9404 382.197L41.2756 386.851C41.2604 386.957 41.2281 387.06 41.1801 387.156L39.2368 391.043C39.2053 391.106 39.1673 391.165 39.1233 391.22L36.4385 394.576L34.707 396.308C34.077 396.938 34.5232 398.015 35.4141 398.015H40.3289C40.4841 398.015 40.6372 397.979 40.7761 397.909L46.0668 395.264L52.77 390.998Z" fill="#E4E4E6"/>
<defs>
<filter id="filter0_b_755_346" x="-30" y="-30" width="615" height="511" filterUnits="userSpaceOnUse" color-interpolation-filters="sRGB">
<feFlood flood-opacity="0" result="BackgroundImageFix"/>
<feGaussianBlur in="BackgroundImageFix" stdDeviation="15"/>
<feComposite in2="SourceAlpha" operator="in" result="effect1_backgroundBlur_755_346"/>
<feBlend mode="normal" in="SourceGraphic" in2="effect1_backgroundBlur_755_346" result="shape"/>
</filter>
</defs>
</svg>
